/* XPM */
static char *_9b791edb71d4cbaba2225265dc1d1c7FtaGAWOmP1KaL4GR[] = {
/* columns rows colors chars-per-pixel */
"64 64 54 1 ",
"  c #6F5743",
". c #53573B",
"X c #B34F4F",
"o c #A73F3F",
"O c #BB5757",
"+ c #AF4747",
"@ c gray34",
"# c #5F4B37",
"$ c #67533F",
"% c #836B4B",
"& c #775F4B",
"* c #574333",
"= c #775F3F",
"- c #533F2F",
"; c #836B57",
": c #4F3B23",
"> c #43331B",
", c #4B371B",
"< c #533F1F",
"1 c #9F876F",
"2 c #332B13",
"3 c #5B472B",
"4 c #675333",
"5 c #8B735B",
"6 c #9B7F6B",
"7 c #9F8363",
"8 c #8F5F37",
"9 c #937B63",
"0 c #6B4727",
"q c #8F7753",
"w c #3F2F17",
"e c #A78F77",
"r c #5F4323",
"t c #2F371F",
"y c #7B634F",
"u c #2F2F2F",
"i c #373737",
"p c #272727",
"a c gray23",
"s c #A36B3F",
"d c #774F2B",
"f c gray31",
"g c gray28",
"h c #2B230F",
"j c #B79F87",
"k c #AF977F",
"l c #6F6F6F",
"z c #232323",
"x c #5B5B5B",
"c c #875733",
"v c #434343",
"b c gray42",
"n c black",
"m c #7F532F",
/* pixels */
"---**------------------------------**---------------------------",
"# &yyy&y&&&&&&$*# &yyy&yyy&&&&$## &yyy&yyy&&&&$*# &yyy&yyy&&&&$#",
" 51eeeee1e1119%# 5111111111119y$ 51eeeeeee1119%# 5111111111119y$",
"$;599595599955%##5;;;;;;;;;;;9%$$;599595599955%##5;;;;;;;;;;;9%$",
"#$&yy&y&&y&y& $##  && && & & &$##$&yyyy&&&yyy $##  && && & & &$#",
"#***#*#*****-*-**--*-:**---*-*-*#--*#*#**-****-**--*-:**---*-*-*",
"#*--****------*##--**---:--*-*-*#---*-*-------*##--**---:--*-*-*",
"$ yy;y;yyyyyy&$## yyyyyy&y&&yy$#$ yy;y;yyyyyy&$## yyyyyy&y&&yy$#",
" 51eeekeeeeee9y$$5111111119569%# 51eeeeeeeee19y$$5111111119569%#",
"$5559595;59555%#$559995;;;%;;5%*$5595955;;5955%#$559995;;;%;;5%*",
"$y%y;%;yy%;;%y *$y;;%5%%yy  &y&*$yy;;;%yyy%;%y *$y;;%5%%yy  &y&*",
"# %y;;%yy&%%y  *$ %;%;yy&&     *# &%;;%y%&y%y  *$ %;%;yy&&     *",
"# &y%%%&&&%y&  *$ y;%yy&       *# &%%;%yy y%&  *$ y;%yy&       *",
"# &y%%%&&&%&   *$ y%yyy&       *# &%%%yy& yy   *$ y%yyy&       *",
"# &y%%%&  %&   *# y&&y&    $   *# &%y%&&  &y   ## y&&y&    $   *",
"#  yyyy   &&   ## y&&&     #$ $-# &%yy&    &   ## y&&&     #$ $-",
"#  yy&y   &&   *# &&&&     #$  *# &y&y&y   &   *# &&&&     #$  *",
"#  &&&y   &&&& *# &y&      ## $-#  y y&&  &y   *# &y&      ## $-",
"#  &&&y   y&;5 *# &&       ## $-#  & y&   &y  $-# &&       ## $-",
"#    &y   y&%y -*$        $## $-#    &     &  $-*$        $## $-",
"-*##**#####**#*--*##**#####**#*-**#***######*#*--*##**#####**#*-",
"t:www>>::>>>w>:>t:www>>>:>>>w>:>t:>>>>>:::>>>>:>t:www>>>:>>>w>:>",
"-:::::--:::-:::--:::---*-::::::--:---------------:::---*-::::::-",
"$#>>>>www>>-$$ $#$$$$$$$$$##*##$$    $  $$ $    $$$$$$###$$$$$$$",
" -uuuuuuvgau#*#*:#r4343$34r3<3<4       &  &  &&y$::::::>:::::::*",
"#-iiiiiia@vi$#4*>*,#:#:#:#:-,3,4 $ $           &$c888=4# = =====",
"$&;;;;;;;;;; ##*:3:#34<#<#:-,-:#$$ $$           #::::::>:>:::::-",
"--------------------*--*----,,:*******##*##*####-3444#3333#34433",
"-:::-:--:::-***-:::-*3-----::::----*--**----***---:-*-----------",
"# &yyyyy&&&&y&$##$&y;;yyyy&y& $$# &yyyyyyy&&y&$##$&yyy&yyy&y& $$",
" 51eeeee1e1119%# 5111e11111119y$ 51eeeeeee1119%# 5111111111119y$",
"$;599595599955%##5;;;;;569;;;9%$$;599595599955%##5;;;;;;;;;;;9%$",
"#$&yy&y&&y&y& $##  && &&y& & &$##$&yyyy&&&yyy $##  && && & & &$#",
"#--*#*#*-*-*-*-**--*-:**---*-***#***#*#*******-**--*-:**---*-***",
"#---*-*-------*##--**---:--*-*-*#*-****---**--*##--**---:--*-*-*",
"$ yy;y;yyyyyy&$## yyyyyy&y&&yy$#$ yy;y;yyyyyy&$## yyyyyy&y&&yy$#",
" 51eeekeeeeee9y$$5111111119569%# 51eeeeeeeee19y$$5111111119569%#",
"$5559595;59555%#$555q9;;;;%y;;%*$;%5q5q96%5q5%%#$559995;;;%;;5%*",
"$y%y;%;yy%;;%y *$&%y%y&&&&= =&&*$&##*###$#***$ *$y;;%5%%yy  &y&*",
"# &&%yy&&&=y&& *$ %yy&=&== $$  *##,>::>::>::,* *$ %;%;yy&&     *",
"# &&%yy&=& &&& *$ y&y&=& = $   *#$>- $- $- $:* *$ y;%yyy&      *",
"# &&&&y&=  &=& *$ y&&&=&   $   *#$-a8 a8 a8 :# *$ y%yyy&       *",
"$  &y&y&=  &=  *$&y&&& &   # $ *#$#g$c- 8- 8f$ *$ y%yyy&       *",
"$ =&y&&&   &&  -# y&&& & & #   *$ **$##&$# $*# *# y%yyy&       *",
"$ =yy&&&   =&  *#  =&& =&& # $$*  *-&$*&$* $-$ *# yyyyy        *",
"#  =y&&=   &   *# &=&& &&  # $$*$ #*$$#&$#&$*$ *# y&yyy        *",
"#  &&      ==  *# &=&=  $  # $$*$$##y #&$#&$g$ *# y&y&&        *",
"$  &&&=&   = ==*#yy=&&=   $#$$$*#$*f&$*&$* $g$ *# y&y&y    $   *",
"$==&&&&  === ==## & ==&&  $##$$*#$-a8 a8 a8 :# ## y&&&&    $   *",
"#$ &&&&  = == $## & = &    ###$-# #-$c*$c*$c*$ ## y&&&     #$ $-",
"#  &==&=   ==  *# = & $    ###$*# $*##*##*###= *# &&&&     #$  *",
"#    =&=   &   *# &==    $$###$-#&%=$$=$$=$$y% *# &y&      ## $-",
"#    &&   &&&  -# &&=    $$###$-#=%%%%%%%%%%%& *# &&       ## $-",
"#    &&   & & $-*$=&$$  $$$###$-# ===&==   =  $-*$        $## $-",
"-*###$########*--*##**#####**#*--*###$########*--*##**#####**#*-",
">:::::::::::::>:t:www>>,:,>>w>:>>>>w>>>w>:>>>>>:t:www>>,:,>>w>:>",
"-:::::::::::::::,>::::::::::::::-:::::::::::::-:,>::::::::::::::",
"################*###############################*###############",
"&& &&y&  &yy& &            $$   && &yy&  &&y& &&           $$   ",
"     y&  &&y&       y    $$##$      &y    &y&       y    $$##$  ",
"$$   & $$&&y   $ $  &    $$##$$$$$   &  $ &y   $ $  &    $$##$$$",
"$    &    &&    $$  &   $$#**#$$$    &     y    $$  &   $$#**#$$",
"$ $$ & $$ &    $$$$ &  $$$#-*#$$$ $$    $  &   $$$$ &  $$$#-*#$$",
"##**#$$#*#$$$##**###$######--**###**$$##*##$$##**###$######--**#"
};
