/* XPM */
static char *_3585c0f80e44114dd79aba94bd75869jtYk7ypnavRFkLhB[] = {
/* columns rows colors chars-per-pixel */
"64 64 23 1 ",
"  c #000008",
". c #061021",
"X c #0B192F",
"o c #0B1B33",
"O c #14274E",
"+ c #132B4B",
"@ c #19315C",
"# c #1B3767",
"$ c #1E386D",
"% c #334365",
"& c #23437F",
"* c #2B5397",
"= c #335FB3",
"- c #43649E",
"; c #516B9D",
": c #486BAC",
"> c #4D75BA",
", c #5B7FBE",
"< c #4377E7",
"1 c #5E83C7",
"2 c #6189CF",
"3 c #5B8AEA",
"4 c #7FA7EF",
/* pixels */
"===******===============**=**++o===******===============**=**++o",
"==*************====***********+o==*************====***********+o",
"=****&&&&&&&****************&++o=****&&&&&&&****************&++o",
"=***&&&&&&&&&&&&&&&&******&&+ooo=***&&&&&&&&&&&&&&&&******&&+ooo",
"=***&&&&&&&&&&&&&&&&&&&&&&&&++oo=***&&&&&&&&&&&&&&&&&&&&&&&&++oo",
"=***&&&&&&&&&&&&&&&&&&&&&&&&&+oo=***&&&&&&&&&&&&&&&&&&&&&&&&&+oo",
"***&&&&&&&&&&&&&&&&&&&&&&&&&&++o***&&&&&&&&&&&&&&&&&&&&&&&&&&++o",
"**&&&&&&&&&&&&&&&&&&&&&&&&&&&&+o**&&&&&&&&&&&&&&&&&&&&&&&&&&&&+o",
"**&&&&&&&&&&&&&&&&&&&&&&&&&&&&+o**&&&&&&&&&&&&&&&&&&&&&&&&&&&&+o",
"=**&&&&&&&&&&&&&&&&&&&&&&&&&&+oo=**&&&&&&&&&&&&&&&&&&&&&&&&&&+oo",
"=**&&&&&&&&&&&&&&&&&&&&&&&&&&+oo=**&&&&&&&&&&&&&&&&&&&&&&&&&&+oo",
"$@@OOOOOOOOOOOOOOOOOOOOOOOOXXX..$@@OOOOOOOOOOOOOOOOOOOOOOOOXXX..",
"@@OOOOOOOOOOOOOOOOOOXXOOOOX..X..@@OOOOOOOOOOOOOOOOOOXXOOOOX..X..",
"@@XXXOOOOOOXXXXXXOXXXXXXXX......@@XXXOOOOOOXXXXXXOXXXXXXXX......",
"XX..XXXXXXXX.....XX....XX.......XX..XXXXXXXX.....XX....XX.......",
"................................................................",
"                                                                ",
"                                                                ",
"  ****    ****    ****    ****    ****    ****    ****    ****  ",
"  &**&    &**&    &**&    &**&    &**&    &**&    &**&    &**&  ",
" #&**&<  #&**&<  #&**&<  #&**&<  #&**&<  #&**&<  #&**&<  #&**&< ",
" #&**&<  #&**&<  #&**&<  #&**&<  #&**&<  #&**&<  #&**&<  #&**&< ",
" #&**&<  #&**&<  #&**&<  #&**&<  #&**&<  #&**&<  #&**&<  #&**&< ",
" #&**&<  #&**&<  #&**&<  #&**&<  #&**&<  #&**&<  #&**&<  #&**&< ",
"%-:>>:3%%-:>>:3%%-:>>:3%%-:>>:3%%-:>>:3%%-:>>:3%%-:>>:3%%-:>>:3%",
"%-:>>:3%%-:>>:3%%-:>>:3%%-:>>:3%%-:>>:3%%-:>>:3%%-:>>:3%%-:>>:3%",
"%-:>>:3%%-:>>:3%%-:>>:3%%-:>>:3%%-:>>:3%%-:>>:3%%-:>>:3%%-:>>:3%",
"%-:>>:4%%-:>>:4%%-:>>:4%%-:>>:4%%-:>>:4%%-:>>:4%%-:>>:4%%-:>>:4%",
"%-:>>:4%%-:>>:4%%-:>>:4%%-:>>:4%%-:>>:4%%-:>>:4%%-:>>:4%%-:>>:4%",
";,12214;;,12214;;,12214;;,12214;;,12214;;,12214;;,12214;;,12214;",
";,12214;;,12214;;,12214;;,12214;;,12214;;,12214;;,12214;;,12214;",
";,12214;;,12214;;,12214;;,12214;;,12214;;,12214;;,12214;;,12214;",
";,12214;;,12214;;,12214;;,12214;;,12214;;,12214;;,12214;;,12214;",
";,12214;;,12214;;,12214;;,12214;;,12214;;,12214;;,12214;;,12214;",
";,12214;;,12214;;,12214;;,12214;;,12214;;,12214;;,12214;;,12214;",
"%-:>>:4%%-:>>:4%%-:>>:4%%-:>>:4%%-:>>:4%%-:>>:4%%-:>>:4%%-:>>:4%",
"%-:>>:3%%-:>>:3%%-:>>:3%%-:>>:3%%-:>>:3%%-:>>:3%%-:>>:3%%-:>>:3%",
"%-:>>:3%%-:>>:3%%-:>>:3%%-:>>:3%%-:>>:3%%-:>>:3%%-:>>:3%%-:>>:3%",
"%-:>>:3%%-:>>:3%%-:>>:3%%-:>>:3%%-:>>:3%%-:>>:3%%-:>>:3%%-:>>:3%",
"%-:>>:3%%-:>>:3%%-:>>:3%%-:>>:3%%-:>>:3%%-:>>:3%%-:>>:3%%-:>>:3%",
" #&**&<  #&**&<  #&**&<  #&**&<  #&**&<  #&**&<  #&**&<  #&**&< ",
" #&**&<  #&**&<  #&**&<  #&**&<  #&**&<  #&**&<  #&**&<  #&**&< ",
" #&**&<  #&**&<  #&**&<  #&**&<  #&**&<  #&**&<  #&**&<  #&**&< ",
" #&**&<  #&**&<  #&**&<  #&**&<  #&**&<  #&**&<  #&**&<  #&**&< ",
"  &**&    &**&    &**&    &**&    &**&    &**&    &**&    &**&  ",
"  ****    ****    ****    ****    ****    ****    ****    ****  ",
"                                                                ",
"                                                                ",
"@@$@@XX.$$$@@@@@@$$$$$$$$$$$$$$$@@$@@XX.$$$@@@@@@$$$$$$$$$$$$$$$",
"@@@@@@X.$$@@@@@@@@@@@@@$$$$@@@@@@@@@@@X.$$@@@@@@@@@@@@@$$$$@@@@@",
"@@@@OXX.$@@@@OOOOOOO@@@@@@@@@@@@@@@@OXX.$@@@@OOOOOOO@@@@@@@@@@@@",
"@@OOX...$@@@OOOOOOOOOOOOOOOO@@@@@@OOX...$@@@OOOOOOOOOOOOOOOO@@@@",
"&&&&++oo=***&&&&&&&&&&&&&&&&&&&&&&&&++oo=***&&&&&&&&&&&&&&&&&&&&",
"&&&&&+oo=***&&&&&&&&&&&&&&&&&&&&&&&&&+oo=***&&&&&&&&&&&&&&&&&&&&",
"&&&&&++o***&&&&&&&&&&&&&&&&&&&&&&&&&&++o***&&&&&&&&&&&&&&&&&&&&&",
"&&&&&&+o**&&&&&&&&&&&&&&&&&&&&&&&&&&&&+o**&&&&&&&&&&&&&&&&&&&&&&",
"&&&&&&+o**&&&&&&&&&&&&&&&&&&&&&&&&&&&&+o**&&&&&&&&&&&&&&&&&&&&&&",
"&&&&&+oo=**&&&&&&&&&&&&&&&&&&&&&&&&&&+oo=**&&&&&&&&&&&&&&&&&&&&&",
"&&&&&+oo=**&&&&&&&&&&&&&&&&&&&&&&&&&&+oo=**&&&&&&&&&&&&&&&&&&&&&",
"&&&+++oo=**&&&&&&&&&&&&&&&&&&&&&&&&+++oo=**&&&&&&&&&&&&&&&&&&&&&",
"&&+oo+oo**&&&&&&&&&&&&&&&&&&++&&&&+oo+oo**&&&&&&&&&&&&&&&&&&++&&",
"++oooooo**+++&&&&&&++++++&++++++++oooooo**+++&&&&&&++++++&++++++",
"+ooooooo++oo++++++++ooooo++oooo++ooooooo++oo++++++++ooooo++oooo+",
"oooooooooooooooooooooooooooooooooooooooooooooooooooooooooooooooo"
};
