/* XPM */
static char *_eb2dbb8dd7a4653882b36218ffd4ed0j4d5Dottlum3Spt5[] = {
/* columns rows colors chars-per-pixel */
"64 64 13 1 ",
"  c #272727",
". c #332B13",
"X c #2B230F",
"o c #2F2F2F",
"O c #3F2F17",
"+ c #232323",
"@ c #13230B",
"# c #1B1B1B",
"$ c #43331B",
"% c #373737",
"& c black",
"* c #170F07",
"= c gray23",
/* pixels */
".o .o..O .  X. .oo.X.  . .X XOX.. .X X.O. X... .oo.X...X. .XOX..",
"@. .. O.O.X  ... o .X +. X.  ..X.O .  O ..  .  X o .X ..+. O    ",
"X ..  .. O.X.XX %#+XX.  X. X.XX O  . ..@. O   X.%#+XX ..   . ..@",
"X ..$ ..O. XX.  &*#.X X..X XX. O $  ...  OX  .X.&*#.XX   $  ... ",
" ...$X.O.X X . .##XXO . .+XX . . .O. ...O.o  o..##XXOXX.X.O. ...",
"  . .X. O+X     ++.XX= X..      X ..  .O O X..  ++.XX..X.O..  . ",
".@o.@.. .O  . X. ..XX  .X.o . X.X.  X.. .XO.  X  ..XX.X O.  X.. ",
" o@.... X.oX   ..X.X XO .+oX   X.X .    .O.XX. ..X.X ...XX .    ",
"X+O.Xo...+Oo.. . XX.Xo . X oX. .X o .X+ O    .   XX.X  @X o .X+ ",
".  ...   O X.  .XX.XX. X  XX.  .X.Xo.X.@.   X.o+XX.XX .  .Xo.X.@",
"+ . Xo  O X . +.%#+ X  o+.+ X +.  X  XXX.X...X.X%#+ X  o. X  XXX",
"XX.@   X+.+..@..&*#....+@oX..@..o... +X   XX.. .&*#..   X... +X ",
" Xo ..  @oX. ..o##XX . X  .XX.XoXXXoX.  XXX   ..##XX   $XXXoX.  ",
". @o....  .Xo   ++ XX.. X.+Xo   X.X  +. o$..X.  ++ XX.o X.X  +. ",
"X . .. .X.+XX.o .. O..   ..XX.o X  .OXoX.X. ..o... O.o .X  .@XoX",
"XX X.o@  .. . ..X. o XX  .o . ..Xo.O .Xo.  O. .oX. o o  Xo.. .Xo",
"+X..+ oX .o .o . . X....O o .o .XXO.o...X OX.o X . X..  .XX.o...",
"X.$X  .oO o.X..X. o .   O ..X..X.o.... o  XO.O.X. o .X .Xo.... o",
"X + X  .O .X. o %#+ .. ....X. o X  X   ..   O ..%#+ .. .X  X O .",
".   .X  ..... o.&*#...  O.X.. o.X...$ @.X+ OX  X&*#...  +...$ @.",
".X...o  O.X.@.X ##X.X. .O...@.X +...$.  XXO X.  ##X.X.   +..$.  ",
" X ..X. O...X  o X. O.  Oo..X  o ....X. o  OXO   X. O.  ..+O.X. ",
". oo... Oo.X .O $ .+ . X.X X .O ..o.... ..  O.  $ .+  X ..o+... ",
"O. ..O. .oo .o   .  ..X  .X ...$.@  X   . .O . X .  X .XXo+. .Xo",
"OO   ....@oX..  ..XX+.$X X X .X  ..  .X .. ..   ..XX.Xo..X..o...",
"O  O   @+Xo .X .   @....$.. . o .   .X.X.X.$. X.   @ .X.Xo.... o",
"O. O. .     X. .%#+... .X OX... ..X .. +X. @X o %#+.o . X OO   .",
"O.     o$.  X.  &*#. XXo.   O... XX . .  @.X. .X&*#..XXX+...$ @.",
"O$      o.  X.  ##XXX..X.X $.. . . .X.X... $X.  ##XXX.   ...O.  ",
"X   $  $X   X.    ...X . X ... .o.+. ..X .X.. ..  ...  o...O.X. ",
"@  o .o. . o. X X.XXoXXXXX o.XX  .  X.. o... $.XX.XX@XX ..O.... ",
".o .... ..  X.  $.@+X@.@ oo X.  X X       X..o .$.@+XXX . X     ",
".o .o... oo X  ..... X X .  X  .. .X X... X... ..... X. . .X X..",
"@. .. .. .  .. .  . X.X .  O.. O.. .    ..  .  X  . X. .+. .    ",
"X ..  ...  X..X %#+  o.  .XXO.O +  O ..@O .   X.%#+  X..   . ..@",
"X ..$ .. .X X..X&*#...XX..  XO.X $  O.O  OX O.X.&*#.. .. $  ... ",
" ...$X. ..  ..  ##XoX  .X . O.   ... O..X.oO o..##XOX   X... ...",
"  . .X. X . .. oXX  X.+ . X .. oX ..O .  .OX..  XX  O+ o. ..  . ",
".@o.@.. . XXX. X...   X X XXX. X..  X.. .X O  X ...$ . X..  X.. ",
" o@.... X XX. .X . X.X..   X. .X.X .    .X.XX. . .$X. .XXX .    ",
"X+O.Xo..   .X..  o.X XoXX X.X.. X o .X+ O    .   o.$ .. X o .X+ ",
".  ...  X X  .o  o . @ X..  . ..X.Xo.X.@.   X.o+ o .$.o  .Xo.X.@",
"+ . Xo  . Xo.@ X%#+XX..X    ..    X  XXX.X...XoX%#+XO@ Xo X  XXX",
"XX.@   X. .   .o&*#.X  X . .. X.o... +X   XX.. .&*#.X .oX... +X ",
" Xo ..  .$.X. .X##XX.X X  X.    XXXoX.  XX$   ..##XX  .XXXXoX.  ",
". @o.... o .. o $ .X.....   @. .X.X  +. o$..X.  $ .XX o X.X  +. ",
"X . .. . $.X o =.....@X .  ..X@ X  .@XoX.X. ..o..... ..$X  .@XoX",
"XX X.o@ .oo .o   .  ..X  .O ...$Xo.. .Xo.   . .o .  X .XXo.. .Xo",
"+X..+ oX.@oX..  ..XX+.$X O X .X XXX.o...X  X.o X..XX.Xo..XX.o...",
"X.$X  .o+Xo .X .   @....$.. . o .o.... o  X . .X   @ .X.Xo.... o",
"X + X  .    X. .%#+... .X OX... X  X   .. .   ..%#+.o . X  X   .",
".   .X  $.  X.  &*#. XXo.   O...X...X @.X+  X  X&*#..XXX+...$ @.",
".X...o  o.  X.  ##XXX..X.X $.. .+.X.$.  XX. X.  ##XXX.   .$...  ",
" X ..X. X   X.    ...X . X ... . ....X. o  .X.    ...  o.$...X. ",
". oo...  . o. X X.XXoXXXXX o.XX ..oX... .$  X.  X.XX@XX ..o.... ",
"O. ..O. X. ... .   o  .  . ...X..@  X   . $  . X   o.    @  X   ",
"OO   ...X.o...X. . $.X  o..o.... ..  .X .. ..    . $ ......  .X ",
"O  O   @ . .. X   .  X .  .  .X .   .X.X.X.$. X.  .  .o .   .X.X",
"O. O. .  X ..XX.%#+..o .X X. .@...X .. +X. @X o %#+.. o  .X .. +",
"O.     o .X X XX&*#. . X.  ...o  XX . .  @.X. .X&*#. X . XX . . ",
"O$      o .O .. ##X XoX. X.XX Xo . .X.X... $X.  ##X X  .o. .X.X.",
"X   $  $oo O.XXO  +o XoX XX.  X.o.+. ..X .X.. ..  +o X   .+. ..X",
"@  o .o. X.X .O .  ....oXX . . . .  X.. o... $.X.  ..o XX.  X.. ",
".o .... .X X.O. . +o ...      X.X X       X..o .. +o $ .. X     "
};
