/* XPM */
static char *e8989441ef9a4cb58af86116dde4978cZmtRHcaL3cPREcmZ[] = {
/* columns rows colors chars-per-pixel */
"64 64 151 2 ",
"   c #181717",
".  c #191817",
"X  c #1C1B1A",
"o  c #201F1E",
"O  c #22201F",
"+  c #252323",
"@  c #282726",
"#  c #2A2827",
"$  c #2C2B2B",
"%  c #302F2E",
"&  c #32302F",
"*  c #353434",
"=  c #383737",
"-  c #3A3837",
";  c #393738",
":  c #3D3B3C",
">  c #3C3C3C",
",  c #3D3C3C",
"<  c #3D3C3D",
"1  c gray24",
"2  c #3E3C3C",
"3  c #3F3C3C",
"4  c #3E3D3C",
"5  c #3F3D3C",
"6  c #3E3C3D",
"7  c #3E3D3D",
"8  c #3F3D3D",
"9  c #3F3E3D",
"0  c #3F3D3E",
"q  c #3E3E3E",
"w  c #3F3E3E",
"e  c #3F3F3E",
"r  c #3F3E3F",
"t  c #3F3F3F",
"y  c #3C3B3B",
"u  c #403D3D",
"i  c #413D3D",
"p  c #403E3D",
"a  c #403E3E",
"s  c #413E3E",
"d  c #403F3E",
"f  c #413F3E",
"g  c #403E3F",
"h  c #403F3F",
"j  c #413F3F",
"k  c #423F3E",
"l  c #433F3E",
"z  c #423F3F",
"x  c #403F3F",
"c  c #41403F",
"v  c #42403F",
"b  c #42403F",
"n  c #403F40",
"m  c #413F40",
"M  c #413F40",
"N  c gray25",
"B  c #414040",
"V  c #414141",
"C  c #424040",
"Z  c #434040",
"A  c #424140",
"S  c #434140",
"D  c #424041",
"F  c #424141",
"G  c #434141",
"H  c #424241",
"J  c #434241",
"K  c #434142",
"L  c gray26",
"P  c #434242",
"I  c #434243",
"U  c #434343",
"Y  c #444241",
"T  c #464241",
"R  c #444242",
"E  c #454242",
"W  c #444342",
"Q  c #454342",
"!  c #444343",
"~  c #454343",
"^  c #454443",
"/  c #464442",
"(  c #464443",
")  c #454344",
"_  c #454444",
"`  c #464444",
"'  c #474444",
"]  c #464544",
"[  c #474544",
"{  c #464445",
"}  c #464545",
"|  c #474545",
" . c #474644",
".. c #474546",
"X. c #474646",
"o. c #474746",
"O. c #444242",
"+. c #494644",
"@. c #484645",
"#. c #484646",
"$. c #484746",
"%. c #494746",
"&. c #484747",
"*. c #494747",
"=. c #4A4747",
"-. c #484746",
";. c #4A4846",
":. c #4A4847",
">. c #494748",
",. c #494748",
"<. c #494848",
"1. c #4A4848",
"2. c #4A4948",
"3. c #4A4849",
"4. c #4A4949",
"5. c #4B4949",
"6. c #4B4A4A",
"7. c #4C4A48",
"8. c #4C4A4A",
"9. c #4D4A4A",
"0. c #4C4B4A",
"q. c #4C4A4B",
"w. c #4F4D4B",
"e. c #4E4C4C",
"r. c #4F4E4E",
"t. c #4C4A4A",
"y. c #514F4D",
"u. c #514E4F",
"i. c #504E4E",
"p. c #514F50",
"a. c #515050",
"s. c #525050",
"d. c #525051",
"f. c #525151",
"g. c #535151",
"h. c #545152",
"j. c #545353",
"k. c #555353",
"l. c #575453",
"z. c #575653",
"x. c #575554",
"c. c #565555",
"v. c #575555",
"b. c #575656",
"n. c #535151",
"m. c #585453",
"M. c #585755",
"N. c #595656",
"B. c #595756",
"V. c #5A5858",
"C. c #5D5B5B",
/* pixels */
"@ * * * * * * * * * * * * * $ $ * * y 7 y y - * = = - - - * * X # = * % $ $ $ $ # $ # # $ # $ $ $ $ $ % $ $ $ # $ $ % * * * % @ ",
"$ 7 { P P 7 7 ! $.P P l ! P - 7 { 6.j.a.a.a.v.v.a.u.j.a.j.v.r.$ - v.6.{ ! ! P ! P P 7 7 7 7 P l P { { 6.{ { P - P 7 l ! q.V.a.* ",
"$ = - * * 3 7 ! ! { ! y - - * - 7 P $.{ $.6.6.6.{ $.y * = P 6.$ 7 a.! y * y 7 7 7 - - - - - > 7 l ! P P P l l 7 l 7 l = - ! z.- ",
"@ * + & w.= 7 7 P P ! y - * * * 7 P { { ! $.6.{ { P # % M.= 6.# - r.= + q.y 7 l P 7 7 7 7 7 - y l P m P P l 7 - 7 7 * o u.( z.* ",
"# * o X - * P l P 7 P y = * * * y 7 ! ! P { { P P ! @ . # * 6.# = 6.*   % * 3 l 7 y 7 7 7 7 - = - 7 l ! P 7 l 7 y 7 *   + % m.* ",
"# - # . O l P l l 7 7 - - * * * - 7 P ! P ! { ! P P y # # 7 q.# = $.7 + . % $.! 7 7 - - - - ; * y 7 l ! l l 7 7 7 7 3 # + = M.* ",
"$ 7 7 y y 7 7 7 7 7 7 - * - * - 7 P { { P 7 P ! P m P { { { q.# * { P P - P { l - - ; - - * = * - 7 7 l l v 7 7 7 7 7 { { 6.a.- ",
"% 7 7 3 y y l l v l l - * - - y 7 P ! P 7 P l ! P P l P ! { >.# * P 7 y 7 l 7 7 - - - - > - - - 7 l 7 y P P 7 l 7 P P { 6.r.r.= ",
"$ y y - 7 y 7 7 v P P 7 = > y y 7 P P P 7 7 P P P 7 P l l l { # * l - y - 7 7 7 l 7 v 7 7 7 7 y 7 7 7 y 7 7 7 P 7 P P ! { 6.$.- ",
"$ - - = 7 7 l l 7 7 y y - l - - 7 P { 7 l y - 7 y P P l l l { # * 7 = - y 7 y 7 P P l y 7 7 7 - - - - = - - - P l m P ( { 6.$.* ",
"$ - 7 y 3 7 y - - - * * - l 7 y - 7 P 7 - - * - = - l P m P 6.$ * y * = - - y 7 7 l 7 l 7 7 y - y - - - - y - 7 7 7 P { { { { * ",
"$ 7 P l l 7 7 7 - - * * = - - = y 7 7 y * = * = - 7 P 7 7 7 6.$ * 7 = = y y y 7 P P l 7 l 7 l 7 y y - = = = - y y 7 P { { { 6.- ",
"* P P v ! l y 7 - - * * * * * * - - - * * = * - y 7 7 7 7 P $.% * l y = 7 7 7 7 7 l P l 7 l 7 7 7 7 - - y - y y y - l l P P $.- ",
"* ! ( ! ! P 7 - = = * = * * * * - - - = * = - 7 7 l l P P P 6.$ * l - * > 7 7 l y 7 7 7 7 l 7 l 7 y - - - 7 m 7 y * y 7 v ( $.= ",
"* ! P ! l 7 7 7 - * * * * * * * - * = - * - y l P P 7 P P P 6.$ * 7 - y ; 7 l 7 - - 7 y 7 l l l 7 - - - 7 > 7 m y * = y 7 ( ! * ",
"* ! { ! l l y y y * * * = * * * * * * - - P P P P P P l P 7 { # = P - - y 7 - y - - - y l P l 3 7 y 7 7 7 7 7 7 - * - 7 m l { * ",
"* { { P l - 7 7 l - y - - - * * * * = - 7 P P P P l 7 y - = ) $ - P 7 7 y 7 - - = - y 7 l 7 7 l l 7 y 7 l P 7 7 y - - 7 7 P $.* ",
"* P P l 7 y 7 y 7 - - 7 7 - - - - - * - 7 7 7 7 l 7 7 - - y ) % y ! - l 7 7 7 - - 7 7 7 7 - l 7 3 - - - 7 P P P 7 - y l l $.{ * ",
"% l P l y y 7 y = - - 7 7 7 l P y - - - - 7 7 7 7 7 > - - 7 { * 7 { l P P P 7 - - y > > 7 7 7 - - - - - 7 P ! l l y - l P { { * ",
"# - y l - 7 7 y ; = - - 7 l 7 7 7 7 ; * * * y 7 7 - = - y 7 6.* 7 { l 7 y 7 - - - - - - 7 y y y - * y 7 l P 7 7 y - y 7 { P { * ",
"# y 7 y - y 7 - y = - - 7 7 7 7 - - * * * - - - - - - y 7 l 6.* 7 ! 7 7 - y - 7 - y 7 y 7 7 7 y - - 7 7 7 7 7 7 7 7 l l ! ! ! * ",
"$ 7 l y - y = * * - * = 7 y - 7 - - - * * ; > 7 7 7 7 7 l P 6.% - { l l y - 7 7 7 7 7 7 l 7 7 7 7 y 7 - > P 7 7 P 7 7 l 7 l P * ",
"% 7 l P 7 7 * * * * * = 7 - - - - ; * * ; - = - y - 7 l ! { $.$ - P y 7 7 7 7 7 7 l P 7 - y - 7 7 - - - - P l P m 7 7 P P P l * ",
"* l P ! P 7 ; * * * * - 7 7 7 - - ; * * * * * > y 7 7 7 P ) { $ = ! 7 y - - 7 P l l 7 7 7 - ; y - - - y 7 P 7 P l 7 l P l { { * ",
"$ P 6.$.{ l y * * * * = 7 7 7 y - * * * * * = = - - 7 { P P { # * P y 7 - 7 l 7 l 7 7 7 7 7 - * * * * y 7 7 l P 7 7 7 ! P { { * ",
"$ ! q.6.$.! P - = - * - 7 l l 7 - * * * * ; * - 7 y P ! { { $.# * P y y = - - 7 7 7 7 7 7 y - * * * * * 7 7 7 7 P l P P P P P * ",
"* 6.6.$.{ { ! y - - - 7 7 l P l y = * * * = ; y y y 7 7 ! $.6.$ * ! - = - * - y > 7 7 7 7 - - * * * * * * - 7 P 7 P P l 7 P 7 * ",
"- 6.y * - l l 7 7 y 7 7 > 7 7 7 - - = * * * = y y 7 $ * ;.l 6.* = P * # * * - l y 7 - 7 7 > - * * * * ; = y 7 l ! ! - # { y 7 * ",
"- { @ $ z.= P l 7 m P 7 7 7 y 7 7 7 = * * - = - 7 y + + q.y a.* - { % . q.l y { P 7 = 7 7 7 - * * = - - - 7 l l { ! * . 3 7 l - ",
"- $.$ . + - P P P P P 7 - - - l 7 l 7 - - - - - 7 l % X + $.v.% l q.* . X # l y l 7 7 P ! 7 7 - - 7 l 7 P P P ! { { y o . % P - ",
"= 6.{ * * y P P P m 7 7 - - 7 y 7 P ) m - 7 - - - l q.{ ! j.j.* { u.P * @ = l 7 P P P { ! ! 7 7 7 ! P 7 l P l ! { { { P * P P - ",
"- r.a.6.{ P { P 7 m P 7 y y 7 7 7 P P > 7 7 l 7 7 P 6.q.6.a.C.* { V.$.{ ! { $.6.$.P { ! { { y - 7 P P 7 l P { { { q.6.$.$.6.{ y ",
"7 q.r.$.{ l P P y l { P { ! { { { { { 6.{ { P P ! $.q.a.M.C.V.* { C.r.6.6.$.6.r.u.6.r.6.6.{ P l P ) { P { { { { 6.6.q.r.r.r.$.7 ",
"# * * % $ # # # @ # # # # # # # # $ $ $ # $ # @ # # $ % * * $ + # * $ $ $ # # % * $ $ # $ # @ @ # # # @ # # # $ $ # $ $ $ $ # @ ",
"= { { y l 3 - - - * - * * = * - y P 7 l 7 7 7 y l 7 y = y ! P $ * { y - * = 7 { { { ( 7 7 7 - - > m 7 - - 7 7 l l l ! - * = - * ",
"y u.- * ! y l l l 7 l l 7 7 7 7 P { P ! ! P P 7 ! l # * j.l a.* 7 q.* # v = l ! { ! { l P 7 7 y m P m 7 - 7 P l ! ! y @ r.7 l - ",
"- q.+ @ q.& = - - = - 7 y y y = 7 7 7 ! P 7 P y 7 y + X - y r.* P p.$   7 y l 7 l - 7 7 7 - - - y - > - ; > 7 7 7 ! *   $ * $.- ",
"= 6.#   X * = * * * * - y 7 7 - 7 7 7 m 7 m 7 - y 7 * X + $.a.* l q.* X . # $.l y - > > y - - - - - - - - - 7 7 7 P l @ o * q.- ",
"* ! P * & y * * * * * - y 7 7 y y 7 y y y 7 - * = - { $.;.r.r.* 7 q.y = * P P y - - - - > 7 - - - - - - - * - - - 7 ! ! P { { * ",
"* P P l y * * * * * * * y 7 7 7 7 7 - * - - = = - 7 ! { $.6.r.* 7 6.l y y 7 y - - 7 - - y 7 y - - = = = = ; - ; - y 7 7 l P P * ",
"$ 7 7 7 = * * * * * * * - - 7 7 7 > - * * * = - y l ! ! { 6.6.* 7 { - - y - - * ; ; * * - 7 y = - = * - * - - * - - 7 y 7 > P * ",
"% 7 ; y y * * * * * * * = - y - = = * * * * * 7 l l P ! { 6.6.$ 7 6.y - 7 y - * = * * * * - - - 7 ; - * = - - * = y 7 7 7 7 P = ",
"$ y - - - - * * * * * * - - - - = * * * * * * - 3 l P { { P { * l 6.l 7 7 7 * * * * * % * y - - 7 7 - y - - = ; * 7 l l 7 P { - ",
"$ P 7 l 7 - * * * * * * - - - y = - = * * * * - - l ! { P ! 6.* l r.! P P > - - = * * * * - y 7 l 7 > y y y - - - l P 7 7 7 { - ",
"$ ! { l 7 - * * * * = - = - - - = - - = * * * * - 7 P 7 P ! $.* { u.! ! P - ; - * * * * - - 7 7 P 7 7 7 y 7 - 7 l P P 7 l P ! y ",
"* $.! 7 7 - * * * * * - - - - 7 7 7 - * * * * * * - - 7 v { 6.* P u.! P P 7 ; - = * * * - y 7 P P 7 P P l P l P ! P l l ! P { - ",
"* { P P - * * * * * * y 7 l 7 > 7 7 - - * * * = = = * - 7 $.$.* P q.7 P > - - - - * * * = - 7 P P P ! P l P ! { { P 7 P ! ! { - ",
"* { P 7 = * $ * * * - 7 P P P P 7 7 y - * * * - y - - y P P $.* l q.P P 7 ; * * - * * * * - 7 7 { l m P P { $.$.{ { P P ! P { * ",
"* ! P y * * $ $ * * - m ! ! { ! P y y y - * * - y y = 7 l P $.* P u.P 7 - * * * = * = * * = 7 l ! l P P ! $.$.{ { ! P P l P ) * ",
"* P - - * * % $ * * 7 P P { { ! P 7 7 7 - - y 7 l 7 7 7 l 6.{ * 7 r.7 y = * * * - * * * * - 7 y l 7 l P { { $.P { { P 7 l P { - ",
"* P 7 - = * * $ * * - P ! l ! P 7 P 7 7 7 7 7 P { ! P 7 7 P P * 7 q.7 y * * * * * * * * - - 7 7 7 l P ! ! { $.! { ! P 7 P { { - ",
"* 7 y * * * * $ * * ; 7 P P P P 7 7 P l l l 7 { $.{ P 7 P 7 P * y $.y y * * * * * * * * - y y - > P P P P P { { P P 7 P P P { y ",
"$ 7 - - * = * * * * - 7 l P { { P { P l l 7 7 l P ! ! P ! P ! * y 6.P y - = - - - * = = y 7 7 7 7 7 m P P { ! P l 7 l P P P $.- ",
"# y 7 7 - - = = * - y 7 P { 6.{ P P P 7 l P P 7 y l l P l l P * 7 r.P y 7 - - - y - - y l v 7 7 7 7 P P P { { { P 7 P P P P 6.- ",
"$ - y l l - * = - - 7 7 P ! P P l P P y 7 { ! l 7 - 7 P P P l * l r.P ! P l 7 l 7 l 7 l P ! P 7 7 7 l P P { P P P 7 l P { { 6.- ",
"* ! 7 l - 7 7 y y y - 7 l l P P 7 7 7 > 7 { ! ! P 7 7 m 7 { P * l u.P ! P P P P l l P ! { ( P 7 7 y y 7 7 P l P l P P P { ! $.= ",
"* $.l 7 - P l 7 - - y 7 P ! l - 7 7 7 P P l ! ! P 7 l l m P P $ 7 a.$.{ { ! P P l l ! P ! l m y - y y - - 7 P 7 l l P { ! P ! * ",
"* 6.! P 7 P 7 7 - = - y 7 P 7 = 7 7 7 7 P P ! l P 7 l 7 l 7 l $ - r.$.{ { { P m l 7 l P m l l 7 y y y - - 7 7 P P { { { { { $.= ",
"* 6.! l P 7 l 7 - - - y l 7 7 - - - 7 7 7 P { P 7 P 7 7 P P P # y q.{ { { { { l 7 7 l l 7 7 l l 7 > - - - P P P ! { ;.{ { $.q.y ",
"* 6.7 * = l 7 7 - - - - - y y - - 7 7 7 7 { ! m P P * * y l ! % P r.{ * = y 7 l 7 7 P P 7 y > 7 - 7 7 7 7 P P { $.6.P % 3 y u.7 ",
"* ;.# * M.y ! ! 7 y - 7 y 7 7 y y 7 P P l P P P { l @ # j.y q.* P r.- + u.v l P 7 7 P 7 7 7 7 7 7 P 7 P P P P { 6.6.= X q.! u.P ",
"= ;.@ . $ y { P P 7 l { ! 7 l 7 P P 6.{ { $.! ! 6.$.% . + l u.* P a.- . @ % l l - l P P 7 y - P 7 l P l P ! $.{ 6.r.! X X & j.l ",
"y r.- + # ! { P P ) { >.{ { P P { r.r.6.6.r.P >.r.6.{ * = $.r.= ! a.$.% + * P $.m P { { ! m 7 m { r.a.r.6.q.q.r.q.a.C.! % $.C.l ",
"# = * * * * * * * % * * * * $ $ * * * * * * * * * = * * * * * @ * - * * * $ * * $ * * * * % $ * * * - = = = - = = = 7 - * - - # "
};
